<?xml version="1.0" encoding="utf-8"?>
<!-- Generator: Adobe Illustrator 23.0.5, SVG Export Plug-In . SVG Version: 6.00 Build 0)  -->
<svg version="1.1" id="Capa_1" xmlns="http://www.w3.org/2000/svg" xmlns:xlink="http://www.w3.org/1999/xlink" x="0px" y="0px"
	 viewBox="0 0 512 512" style="enable-background:new 0 0 512 512;" xml:space="preserve">
<style type="text/css">
	.st0{fill:#FFFFFF;}
</style>
<g>
	<g>
		<path class="st0" d="M437.3,85.3c-20,0-38.7,7.8-53,22.1L256,243.3L127.5,107.2c-14.1-14.1-32.9-21.9-52.8-21.9
			C33.5,85.3,0,118.8,0,160c0,19.9,7.7,38.6,21.8,52.7l181.4,192.1c10.4,10.4,23.5,17.4,37.8,20.4c4.9,1,10,1.5,15,1.5
			c5.1,0,10.1-0.5,15-1.5c14.3-2.9,27.4-10,38-20.6l181.1-191.8c14.1-14.1,21.9-32.8,21.9-52.8C512,118.8,478.5,85.3,437.3,85.3z"/>
	</g>
</g>
</svg>
