<?xml version="1.0" encoding="iso-8859-1"?>
<!-- Generator: Adobe Illustrator 19.0.0, SVG Export Plug-In . SVG Version: 6.00 Build 0)  -->
<svg version="1.1" id="Layer_1" xmlns="http://www.w3.org/2000/svg" xmlns:xlink="http://www.w3.org/1999/xlink" x="0px" y="0px"
	 viewBox="0 0 511.99 511.99" style="enable-background:new 0 0 511.99 511.99;" xml:space="preserve">
<g>
	<g>
		<g>
			<path d="M508.865,451.119l-54.613-54.598c9.339-12.467,15.075-27.775,15.075-44.517c0-41.177-33.496-74.677-74.659-74.677
				c-41.183,0-74.679,33.5-74.679,74.677c0,41.177,33.496,74.677,74.679,74.677c16.735,0,32.038-5.736,44.503-15.076l54.611,54.596
				c2.083,2.083,4.812,3.125,7.541,3.125c2.729,0,5.458-1.042,7.541-3.125C513.031,462.035,513.031,455.285,508.865,451.119z
				 M394.669,405.348c-29.413,0-53.348-23.927-53.348-53.344c0-29.417,23.935-53.344,53.348-53.344s53.328,23.927,53.328,53.344
				C447.997,381.421,424.082,405.348,394.669,405.348z"/>
			<path d="M141.604,79.639l-128-36.573c-3.25-0.906-6.688-0.271-9.354,1.74C1.562,46.827,0,49.983,0,53.327v320
				c0,4.76,3.167,8.948,7.729,10.26l128,36.573c0.979,0.271,1.958,0.406,2.938,0.406c2.292,0,4.542-0.74,6.417-2.146
				c2.688-2.021,4.25-5.177,4.25-8.521v-320C149.333,85.139,146.167,80.952,141.604,79.639z"/>
			<path d="M294.417,50.9c-2.688-2.01-6.083-2.646-9.354-1.74L178.396,79.639c-4.563,1.313-7.729,5.5-7.729,10.26v320
				c0,3.344,1.563,6.5,4.25,8.521c1.875,1.406,4.125,2.146,6.417,2.146c0.979,0,1.958-0.135,2.938-0.406l106.667-30.479
				c4.563-1.313,7.729-5.5,7.729-10.26v-320C298.667,56.077,297.104,52.921,294.417,50.9z"/>
			<path d="M325.917,276.744c3.625,1.802,7.958,1.406,11.188-1.052c34.042-25.771,81.042-25.781,115.125,0.01
				c1.896,1.438,4.146,2.167,6.438,2.167c1.625,0,3.25-0.365,4.75-1.115c3.625-1.802,5.917-5.5,5.917-9.552V95.994
				c0-4.76-3.167-8.948-7.729-10.26l-128-36.573c-3.271-0.906-6.667-0.271-9.354,1.74c-2.688,2.021-4.25,5.177-4.25,8.521v207.771
				C320,271.244,322.292,274.941,325.917,276.744z"/>
		</g>
	</g>
</g>
<g>
</g>
<g>
</g>
<g>
</g>
<g>
</g>
<g>
</g>
<g>
</g>
<g>
</g>
<g>
</g>
<g>
</g>
<g>
</g>
<g>
</g>
<g>
</g>
<g>
</g>
<g>
</g>
<g>
</g>
</svg>
